<svg width="48" height="48" viewBox="0 0 48 48" fill="none" xmlns="http://www.w3.org/2000/svg">
<g id="Behance" filter="url(#filter0_d_12_191)">
<rect id="Rectangle" x="5" y="1" width="38" height="38" rx="19" fill="url(#paint0_linear_12_191)"/>
<path id="Vector" d="M19.9806 14C20.5741 14 21.122 14.0457 21.6242 14.1826C22.1264 14.2739 22.5372 14.4565 22.9025 14.6848C23.2677 14.9131 23.5416 15.2327 23.7242 15.6435C23.9069 16.0544 23.9982 16.5566 23.9982 17.1045C23.9982 17.7436 23.8612 18.2914 23.5416 18.7023C23.2677 19.1132 22.8112 19.4784 22.2633 19.7524C23.0394 19.9806 23.6329 20.3915 23.9982 20.9394C24.3634 21.4872 24.5917 22.172 24.5917 22.9481C24.5917 23.5873 24.4547 24.1351 24.2264 24.5917C23.9982 25.0482 23.6329 25.4591 23.2221 25.733C22.8112 26.0069 22.309 26.2352 21.7611 26.3722C21.2133 26.5091 20.6654 26.6004 20.1176 26.6004H14V14H19.9806ZM19.6154 19.1132C20.1176 19.1132 20.5285 18.9763 20.8481 18.748C21.1676 18.5197 21.3046 18.1088 21.3046 17.6066C21.3046 17.3327 21.2589 17.0588 21.1676 16.8762C21.0763 16.6936 20.9394 16.5566 20.7567 16.4196C20.5741 16.3283 20.3915 16.237 20.1633 16.1914C19.935 16.1457 19.7067 16.1457 19.4328 16.1457H16.7849V19.1132H19.6154ZM19.7524 24.5004C20.0263 24.5004 20.3002 24.4547 20.5285 24.409C20.7568 24.3634 20.985 24.2721 21.1676 24.1351C21.3502 23.9982 21.4872 23.8612 21.6242 23.6329C21.7155 23.4047 21.8068 23.1307 21.8068 22.8112C21.8068 22.172 21.6242 21.7155 21.2589 21.3959C20.8937 21.122 20.3915 20.985 19.798 20.985H16.7849V24.5004H19.7524ZM28.5635 24.4547C28.9288 24.8199 29.4766 25.0025 30.2071 25.0025C30.7093 25.0025 31.1658 24.8656 31.531 24.6373C31.8963 24.3634 32.1245 24.0895 32.2158 23.8155H34.4529C34.0876 24.9112 33.5398 25.6874 32.8093 26.1895C32.0789 26.6461 31.2115 26.92 30.1614 26.92C29.431 26.92 28.7918 26.783 28.1983 26.5548C27.6048 26.3265 27.1483 26.0069 26.7374 25.5504C26.3265 25.1395 26.0069 24.6373 25.8243 24.0438C25.596 23.4503 25.5047 22.8112 25.5047 22.0807C25.5047 21.3959 25.596 20.7567 25.8243 20.1633C26.0526 19.5698 26.3722 19.0676 26.783 18.611C27.1939 18.2001 27.6961 17.8349 28.244 17.6066C28.8375 17.3784 29.431 17.2414 30.1614 17.2414C30.9375 17.2414 31.6223 17.3784 32.2158 17.698C32.8093 18.0175 33.2659 18.3828 33.6311 18.9306C33.9963 19.4328 34.2702 20.0263 34.4529 20.6654C34.5442 21.3046 34.5898 21.9437 34.5442 22.6742H27.9244C27.9244 23.4047 28.1983 24.0895 28.5635 24.4547ZM31.4397 19.6611C31.1201 19.3415 30.618 19.1589 30.0245 19.1589C29.6136 19.1589 29.294 19.2502 29.0201 19.3871C28.7462 19.5241 28.5635 19.7067 28.3809 19.8893C28.1983 20.0719 28.107 20.3002 28.0613 20.5285C28.0157 20.7567 27.97 20.9394 27.97 21.122H32.0789C31.9876 20.4372 31.7593 19.9806 31.4397 19.6611ZM27.4222 14.8674H32.5354V16.1001H27.4222V14.8674Z" fill="white"/>
</g>
<defs>
<filter id="filter0_d_12_191" x="0" y="0" width="48" height="48" filterUnits="userSpaceOnUse" color-interpolation-filters="sRGB">
<feFlood flood-opacity="0" result="BackgroundImageFix"/>
<feColorMatrix in="SourceAlpha" type="matrix" values="0 0 0 0 0 0 0 0 0 0 0 0 0 0 0 0 0 0 127 0" result="hardAlpha"/>
<feOffset dy="4"/>
<feGaussianBlur stdDeviation="2.5"/>
<feColorMatrix type="matrix" values="0 0 0 0 0 0 0 0 0 0 0 0 0 0 0 0 0 0 0.16 0"/>
<feBlend mode="normal" in2="BackgroundImageFix" result="effect1_dropShadow_12_191"/>
<feBlend mode="normal" in="SourceGraphic" in2="effect1_dropShadow_12_191" result="shape"/>
</filter>
<linearGradient id="paint0_linear_12_191" x1="-16.5764" y1="-62.2784" x2="-144.832" y2="-16.7583" gradientUnits="userSpaceOnUse">
<stop stop-color="#8468F5"/>
<stop offset="1" stop-color="#EC74E7"/>
</linearGradient>
</defs>
</svg>
