<svg width="48" height="48" viewBox="0 0 48 48" fill="none" xmlns="http://www.w3.org/2000/svg">
<g id="Dribbble" filter="url(#filter0_d_12_187)">
<rect id="Rectangle" x="5" y="1" width="38" height="38" rx="19" fill="url(#paint0_linear_12_187)"/>
<path id="Vector" d="M24.1631 31.3C18.0059 31.3 13 26.3028 13 20.1544C13 13.9972 18.0059 9 24.1631 9C30.3202 9 35.3262 13.9972 35.3262 20.1456C35.3262 26.2941 30.3202 31.3 24.1631 31.3ZM33.5732 21.6718C33.2505 21.5672 30.6255 20.791 27.6341 21.2619C28.8812 24.6806 29.3871 27.4714 29.483 28.047C31.6284 26.608 33.1546 24.3231 33.5732 21.6718ZM27.887 28.9278C27.7475 28.0906 27.1893 25.1777 25.855 21.7067C25.8375 21.7154 25.8114 21.7242 25.7939 21.7242C20.413 23.5992 18.4856 27.3232 18.3112 27.672C19.9246 28.9278 21.9566 29.6779 24.1631 29.6779C25.48 29.6866 26.7446 29.4162 27.887 28.9278ZM17.0815 26.5295C17.2995 26.1632 19.9159 21.8375 24.8346 20.2416C24.9567 20.198 25.0875 20.1631 25.2096 20.1282C24.9742 19.5875 24.7125 19.0468 24.4334 18.5148C19.6717 19.9363 15.0495 19.8753 14.6309 19.8666C14.6309 19.9625 14.6221 20.0584 14.6221 20.1544C14.6309 22.605 15.5553 24.8376 17.0815 26.5295ZM14.8314 18.2095C15.2588 18.2183 19.1833 18.2357 23.6485 17.0496C22.07 14.2414 20.3607 11.8867 20.1165 11.5466C17.4391 12.8024 15.4506 15.2618 14.8314 18.2095ZM21.9305 10.9012C22.1921 11.2501 23.9276 13.6048 25.4887 16.474C28.8812 15.2007 30.3115 13.2821 30.4859 13.0379C28.8027 11.5466 26.5876 10.6396 24.1631 10.6396C23.3956 10.6396 22.6456 10.7355 21.9305 10.9012ZM31.5412 14.1368C31.3406 14.4071 29.7446 16.4566 26.2213 17.8956C26.4393 18.3491 26.6573 18.8113 26.8579 19.2735C26.9277 19.4392 26.9975 19.6049 27.0672 19.7619C30.2417 19.3607 33.3901 20.0061 33.704 20.0671C33.6779 17.8258 32.8755 15.7589 31.5412 14.1368Z" fill="white"/>
</g>
<defs>
<filter id="filter0_d_12_187" x="0" y="0" width="48" height="48" filterUnits="userSpaceOnUse" color-interpolation-filters="sRGB">
<feFlood flood-opacity="0" result="BackgroundImageFix"/>
<feColorMatrix in="SourceAlpha" type="matrix" values="0 0 0 0 0 0 0 0 0 0 0 0 0 0 0 0 0 0 127 0" result="hardAlpha"/>
<feOffset dy="4"/>
<feGaussianBlur stdDeviation="2.5"/>
<feColorMatrix type="matrix" values="0 0 0 0 0 0 0 0 0 0 0 0 0 0 0 0 0 0 0.16 0"/>
<feBlend mode="normal" in2="BackgroundImageFix" result="effect1_dropShadow_12_187"/>
<feBlend mode="normal" in="SourceGraphic" in2="effect1_dropShadow_12_187" result="shape"/>
</filter>
<linearGradient id="paint0_linear_12_187" x1="-16.5764" y1="-62.2784" x2="-144.832" y2="-16.7583" gradientUnits="userSpaceOnUse">
<stop stop-color="#8468F5"/>
<stop offset="1" stop-color="#EC74E7"/>
</linearGradient>
</defs>
</svg>
